<svg width="167" height="48" viewBox="0 0 167 48" fill="none" xmlns="http://www.w3.org/2000/svg">
<path d="M160.154 48H6.30766C2.92458 48 0.153809 45.2985 0.153809 42V6C0.153809 2.7015 2.92458 -2.1874e-06 6.30766 -2.1874e-06H160.154C163.537 -2.1874e-06 166.308 2.7015 166.308 6V42C166.308 45.2985 163.537 48 160.154 48Z" fill="black"/>
<path d="M160.154 0.961498C163.003 0.961498 165.322 3.222 165.322 6V42C165.322 44.778 163.003 47.0385 160.154 47.0385H6.30766C3.45842 47.0385 1.13996 44.778 1.13996 42V6C1.13996 3.222 3.45842 0.961498 6.30766 0.961498H160.154ZM160.154 -2.1874e-06H6.30766C2.92458 -2.1874e-06 0.153809 2.7015 0.153809 6V42C0.153809 45.2985 2.92458 48 6.30766 48H160.154C163.537 48 166.308 45.2985 166.308 42V6C166.308 2.7015 163.537 -2.1874e-06 160.154 -2.1874e-06Z" fill="#A6A6A6"/>
<path d="M12.9969 9.0464C12.6354 9.4154 12.4261 9.9899 12.4261 10.7339V37.2719C12.4261 38.0159 12.6354 38.5904 12.9969 38.9594L13.0861 39.0404L28.3384 24.1754V23.8244L13.0861 8.9594L12.9969 9.0464Z" fill="url(#paint0_linear_1_391)"/>
<path d="M33.4168 29.1329L28.3384 24.1754V23.8244L33.423 18.8669L33.5368 18.9314L39.5584 22.2719C41.2768 23.2199 41.2768 24.7799 39.5584 25.7339L33.5368 29.0684L33.4168 29.1329Z" fill="url(#paint1_linear_1_391)"/>
<path d="M33.5369 29.0685L28.3385 24L12.9969 38.9595C13.5677 39.5445 14.4985 39.615 15.5569 39.03L33.5369 29.0685Z" fill="url(#paint2_linear_1_391)"/>
<path d="M33.5369 18.9315L15.5569 8.97C14.4985 8.391 13.5677 8.4615 12.9969 9.0465L28.3385 24L33.5369 18.9315Z" fill="url(#paint3_linear_1_391)"/>
<path d="M58.5138 12.2924C58.5138 13.2944 58.2061 14.0969 57.6 14.6954C56.903 15.4049 55.9954 15.7619 54.883 15.7619C53.82 15.7619 52.9123 15.3989 52.1677 14.6834C51.4215 13.9574 51.0492 13.0664 51.0492 11.9999C51.0492 10.9334 51.4215 10.0424 52.1677 9.32242C52.9123 8.60092 53.82 8.23792 54.883 8.23792C55.4123 8.23792 55.9169 8.34442 56.3984 8.54242C56.8784 8.74192 57.2692 9.01191 57.5523 9.34491L56.9092 9.97792C56.4153 9.40942 55.743 9.12892 54.883 9.12892C54.1077 9.12892 53.4353 9.39291 52.8646 9.92541C52.3 10.4594 52.0169 11.1509 52.0169 11.9999C52.0169 12.8489 52.3 13.5464 52.8646 14.0804C53.4353 14.6069 54.1077 14.8769 54.883 14.8769C55.7061 14.8769 56.3984 14.6069 56.9446 14.0744C57.3046 13.7219 57.5092 13.2359 57.563 12.6149H54.883V11.7479H58.4584C58.5015 11.9354 58.5138 12.1169 58.5138 12.2924Z" fill="white" stroke="white" stroke-width="0.16" stroke-miterlimit="10"/>
<path d="M64.1861 9.28645H60.8276V11.5665H63.8553V12.4335H60.8276V14.7135H64.1861V15.597H59.8768V8.40295H64.1861V9.28645Z" fill="white" stroke="white" stroke-width="0.16" stroke-miterlimit="10"/>
<path d="M68.1891 15.597H67.2383V9.28645H65.1783V8.40295H70.2506V9.28645H68.1891V15.597Z" fill="white" stroke="white" stroke-width="0.16" stroke-miterlimit="10"/>
<path d="M73.9215 15.597V8.40295H74.8707V15.597H73.9215Z" fill="white" stroke="white" stroke-width="0.16" stroke-miterlimit="10"/>
<path d="M79.0784 15.597H78.1353V9.28645H76.0676V8.40295H81.1461V9.28645H79.0784V15.597Z" fill="white" stroke="white" stroke-width="0.16" stroke-miterlimit="10"/>
<path d="M90.7492 14.6714C90.0215 15.3989 89.1199 15.7619 88.0446 15.7619C86.963 15.7619 86.0615 15.3989 85.3338 14.6714C84.6076 13.9454 84.2461 13.0544 84.2461 11.9999C84.2461 10.9454 84.6076 10.0544 85.3338 9.32842C86.0615 8.60092 86.963 8.23792 88.0446 8.23792C89.1138 8.23792 90.0153 8.60091 90.743 9.33441C91.4753 10.0664 91.8369 10.9514 91.8369 11.9999C91.8369 13.0544 91.4753 13.9454 90.7492 14.6714ZM86.0369 14.0684C86.5846 14.6069 87.2507 14.8769 88.0446 14.8769C88.8322 14.8769 89.5046 14.6069 90.0461 14.0684C90.5923 13.5299 90.8692 12.8384 90.8692 11.9999C90.8692 11.1614 90.5923 10.4699 90.0461 9.93142C89.5046 9.39292 88.8322 9.12292 88.0446 9.12292C87.2507 9.12292 86.5846 9.39292 86.0369 9.93142C85.4907 10.4699 85.2138 11.1614 85.2138 11.9999C85.2138 12.8384 85.4907 13.5299 86.0369 14.0684Z" fill="white" stroke="white" stroke-width="0.16" stroke-miterlimit="10"/>
<path d="M93.1708 15.597V8.40295H94.3246L97.9123 13.998H97.9539L97.9123 12.615V8.40295H98.8616V15.597H97.8708L94.1139 9.72595H94.0723L94.1139 11.115V15.597H93.1708Z" fill="white" stroke="white" stroke-width="0.16" stroke-miterlimit="10"/>
<path d="M84.0122 26.1031C81.1215 26.1031 78.7599 28.2481 78.7599 31.2076C78.7599 34.1431 81.1215 36.3106 84.0122 36.3106C86.9092 36.3106 89.2707 34.1431 89.2707 31.2076C89.2707 28.2481 86.9092 26.1031 84.0122 26.1031ZM84.0122 34.3006C82.4261 34.3006 81.0615 33.0241 81.0615 31.2076C81.0615 29.3671 82.4261 28.1131 84.0122 28.1131C85.5984 28.1131 86.9692 29.3671 86.9692 31.2076C86.9692 33.0241 85.5984 34.3006 84.0122 34.3006ZM72.5522 26.1031C69.6553 26.1031 67.2999 28.2481 67.2999 31.2076C67.2999 34.1431 69.6553 36.3106 72.5522 36.3106C75.4476 36.3106 77.8045 34.1431 77.8045 31.2076C77.8045 28.2481 75.4476 26.1031 72.5522 26.1031ZM72.5522 34.3006C70.9645 34.3006 69.5953 33.0241 69.5953 31.2076C69.5953 29.3671 70.9645 28.1131 72.5522 28.1131C74.1384 28.1131 75.503 29.3671 75.503 31.2076C75.503 33.0241 74.1384 34.3006 72.5522 34.3006ZM58.9153 27.6676V29.8366H64.2276C64.0722 31.0486 63.6569 31.9396 63.0199 32.5606C62.2445 33.3106 61.0369 34.1431 58.9153 34.1431C55.6461 34.1431 53.0861 31.5706 53.0861 28.3831C53.0861 25.1956 55.6461 22.6231 58.9153 22.6231C60.683 22.6231 61.9692 23.2966 62.9184 24.1696L64.4861 22.6411C63.1584 21.4051 61.3922 20.4556 58.9153 20.4556C54.4322 20.4556 50.6646 24.0121 50.6646 28.3831C50.6646 32.7541 54.4322 36.3106 58.9153 36.3106C61.3384 36.3106 63.1584 35.5366 64.5892 34.0846C66.0553 32.6551 66.5122 30.6451 66.5122 29.0221C66.5122 28.5181 66.4692 28.0546 66.3922 27.6676H58.9153ZM114.678 29.3491C114.246 28.2076 112.912 26.1031 110.195 26.1031C107.503 26.1031 105.261 28.1716 105.261 31.2076C105.261 34.0666 107.48 36.3106 110.454 36.3106C112.858 36.3106 114.246 34.8811 114.817 34.0486L113.032 32.8891C112.437 33.7381 111.626 34.3006 110.454 34.3006C109.289 34.3006 108.454 33.7801 107.918 32.7541L114.92 29.9296L114.678 29.3491ZM107.54 31.0486C107.48 29.0806 109.108 28.0726 110.274 28.0726C111.188 28.0726 111.963 28.5181 112.221 29.1556L107.54 31.0486ZM101.849 36.0001H104.151V21.0001H101.849V36.0001ZM98.0799 27.2401H98.003C97.4861 26.6431 96.4999 26.1031 95.2507 26.1031C92.6292 26.1031 90.2322 28.3471 90.2322 31.2241C90.2322 34.0846 92.6292 36.3106 95.2507 36.3106C96.4999 36.3106 97.4861 35.7661 98.003 35.1511H98.0799V35.8831C98.0799 37.8346 97.0107 38.8831 95.2861 38.8831C93.8799 38.8831 93.0076 37.8931 92.6476 37.0606L90.6461 37.8751C91.223 39.2281 92.7507 40.8931 95.2861 40.8931C97.9845 40.8931 100.261 39.3451 100.261 35.5786V26.4136H98.0799V27.2401ZM95.4476 34.3006C93.8615 34.3006 92.5338 33.0061 92.5338 31.2241C92.5338 29.4256 93.8615 28.1131 95.4476 28.1131C97.0107 28.1131 98.243 29.4256 98.243 31.2241C98.243 33.0061 97.0107 34.3006 95.4476 34.3006ZM125.454 21.0001H119.949V36.0001H122.245V30.3166H125.454C128.003 30.3166 130.503 28.5181 130.503 25.6576C130.503 22.7986 127.997 21.0001 125.454 21.0001ZM125.514 28.2301H122.245V23.0866H125.514C127.228 23.0866 128.206 24.4741 128.206 25.6576C128.206 26.8186 127.228 28.2301 125.514 28.2301ZM139.703 26.0746C138.045 26.0746 136.32 26.7886 135.611 28.3711L137.648 29.2036C138.086 28.3711 138.892 28.1011 139.745 28.1011C140.935 28.1011 142.143 28.7986 142.161 30.0301V30.1876C141.746 29.9536 140.857 29.6071 139.763 29.6071C137.569 29.6071 135.334 30.7846 135.334 32.9821C135.334 34.9921 137.131 36.2866 139.151 36.2866C140.695 36.2866 141.548 35.6071 142.083 34.8166H142.161V35.9761H144.378V30.2221C144.378 27.5626 142.341 26.0746 139.703 26.0746ZM139.426 34.2946C138.675 34.2946 137.629 33.9316 137.629 33.0241C137.629 31.8631 138.934 31.4176 140.063 31.4176C141.074 31.4176 141.548 31.6351 142.161 31.9216C141.981 33.3106 140.755 34.2946 139.426 34.2946ZM152.455 26.4031L149.817 32.9056H149.738L147.011 26.4031H144.535L148.634 35.4901L146.295 40.5466H148.694L155.009 26.4031H152.455ZM131.765 36.0001H134.066V21.0001H131.765V36.0001Z" fill="white"/>
<defs>
<linearGradient id="paint0_linear_1_391" x1="26.9842" y1="37.5483" x2="6.8518" y2="16.8996" gradientUnits="userSpaceOnUse">
<stop stop-color="#00A0FF"/>
<stop offset="0.0066" stop-color="#00A1FF"/>
<stop offset="0.2601" stop-color="#00BEFF"/>
<stop offset="0.5122" stop-color="#00D2FF"/>
<stop offset="0.7604" stop-color="#00DFFF"/>
<stop offset="1" stop-color="#00E3FF"/>
</linearGradient>
<linearGradient id="paint1_linear_1_391" x1="41.7961" y1="23.9983" x2="12.0153" y2="23.9983" gradientUnits="userSpaceOnUse">
<stop stop-color="#FFE000"/>
<stop offset="0.4087" stop-color="#FFBD00"/>
<stop offset="0.7754" stop-color="#FFA500"/>
<stop offset="1" stop-color="#FF9C00"/>
</linearGradient>
<linearGradient id="paint2_linear_1_391" x1="30.7102" y1="21.2447" x2="3.40897" y2="-6.75659" gradientUnits="userSpaceOnUse">
<stop stop-color="#FF3A44"/>
<stop offset="1" stop-color="#C31162"/>
</linearGradient>
<linearGradient id="paint3_linear_1_391" x1="9.13516" y1="47.7886" x2="21.3264" y2="35.2849" gradientUnits="userSpaceOnUse">
<stop stop-color="#32A071"/>
<stop offset="0.0685" stop-color="#2DA771"/>
<stop offset="0.4762" stop-color="#15CF74"/>
<stop offset="0.8009" stop-color="#06E775"/>
<stop offset="1" stop-color="#00F076"/>
</linearGradient>
</defs>
</svg>
