<svg width="32" height="32" viewBox="0 0 32 32" fill="none" xmlns="http://www.w3.org/2000/svg">
<path d="M29.0132 27.2554H29.2798L28.7689 26.4826C29.0813 26.4826 29.2469 26.2841 29.2492 26.0411C29.2492 26.0317 29.2492 26.0211 29.2481 26.0117C29.2481 25.6805 29.0484 25.522 28.6386 25.522H27.9762V27.2554H28.2252V26.5002H28.5317L29.0132 27.2554ZM28.5141 26.3041H28.2252V25.7181H28.5916C28.7807 25.7181 28.9967 25.7486 28.9967 25.9964C28.9967 26.2806 28.7783 26.3041 28.5129 26.3041" fill="#0089FF"/>
<path d="M22.3063 24.3065H18.7749V18.7763C18.7749 17.4574 18.7514 15.7605 16.9382 15.7605C15.0991 15.7605 14.8172 17.1967 14.8172 18.6812V24.3065H11.287V12.9337H14.6775V14.4874H14.7245C15.4162 13.306 16.701 12.6002 18.0691 12.6507C21.6486 12.6507 22.3075 15.0053 22.3075 18.067L22.3063 24.3065ZM7.30235 11.3788C6.17024 11.3788 5.25305 10.4616 5.25305 9.32952C5.25305 8.19742 6.17024 7.28022 7.30235 7.28022C8.43446 7.28022 9.35166 8.19742 9.35166 9.32952C9.35166 10.4616 8.43446 11.3788 7.30235 11.3788ZM9.06745 24.3065H5.53255V12.9337H9.06745V24.3065ZM24.0667 4.00133H3.75806C2.79858 3.99077 2.01174 4.75999 2 5.71946V26.1115C2.01174 27.0721 2.79858 27.8414 3.75806 27.8308H24.0667C25.0285 27.8425 25.8189 27.0733 25.8318 26.1115V5.71829C25.8177 4.75646 25.0274 3.98724 24.0667 4.00016" fill="#0089FF"/>
<path d="M28.5446 24.7504C27.6474 24.7586 26.9263 25.4938 26.9357 26.391C26.9439 27.2882 27.6791 28.0093 28.5763 27.9999C29.4735 27.9917 30.1946 27.2565 30.1852 26.3593C30.177 25.4738 29.4606 24.7586 28.5763 24.7504H28.5446ZM28.5822 27.8132C27.7953 27.8261 27.1095 27.2001 27.0966 26.4133C27.0837 25.6265 27.7108 24.9782 28.4976 24.9653C29.2845 24.9524 29.9327 25.5795 29.9456 26.3663C29.9456 26.3745 29.9456 26.3816 29.9456 26.3898C29.9621 27.159 29.3514 27.7967 28.5822 27.8132H28.5458H28.5822Z" fill="#0089FF"/>
</svg>
