<svg width="25" height="20" viewBox="0 0 25 20" fill="none" xmlns="http://www.w3.org/2000/svg">
<path d="M22.095 4.97872C22.1094 5.19513 22.1094 5.41256 22.1094 5.63102C22.1094 12.3047 17.0284 20 7.74038 20V19.9959C4.99684 20 2.3097 19.2144 0 17.7323C0.398967 17.7806 0.799986 17.8041 1.20203 17.8052C3.47686 17.8072 5.68605 17.0442 7.47372 15.639C5.31273 15.598 3.41738 14.1888 2.75585 12.1314C3.51276 12.2771 4.29223 12.2473 5.03581 12.0453C2.67893 11.5694 0.984598 9.49864 0.984598 7.09458C0.984598 7.07305 0.984598 7.05151 0.984598 7.03099C1.68715 7.42278 2.47278 7.63919 3.27687 7.66278C1.05742 6.18075 0.372301 3.22901 1.71279 0.921359C4.27685 4.07618 8.06037 5.99409 12.1208 6.19819C11.7136 4.44437 12.2706 2.60646 13.5813 1.37263C15.6151 -0.540154 18.814 -0.441694 20.7268 1.59212C21.8581 1.36956 22.9422 0.954179 23.9339 0.366497C23.5565 1.53571 22.7678 2.52851 21.7135 3.16029C22.7155 3.0403 23.6929 2.77261 24.615 2.36441C23.937 3.37875 23.0837 4.26386 22.095 4.97872Z" fill="#0089FF"/>
</svg>
