<svg width="96" height="32" viewBox="0 0 96 32" fill="none" xmlns="http://www.w3.org/2000/svg">
<g clip-path="url(#clip0_1_425)">
<path d="M94.8267 13.2133L89.6667 7.99999C89.5427 7.87502 89.3952 7.77582 89.2328 7.70813C89.0703 7.64044 88.896 7.60559 88.72 7.60559C88.544 7.60559 88.3697 7.64044 88.2072 7.70813C88.0448 7.77582 87.8973 7.87502 87.7733 7.99999C87.525 8.24981 87.3856 8.58774 87.3856 8.93999C87.3856 9.29224 87.525 9.63017 87.7733 9.87999L92.52 14.6667H65.3333C64.9797 14.6667 64.6406 14.8071 64.3905 15.0572C64.1405 15.3072 64 15.6464 64 16V16C64 16.3536 64.1405 16.6927 64.3905 16.9428C64.6406 17.1928 64.9797 17.3333 65.3333 17.3333H92.6L87.7733 22.1467C87.6484 22.2706 87.5492 22.4181 87.4815 22.5806C87.4138 22.743 87.3789 22.9173 87.3789 23.0933C87.3789 23.2693 87.4138 23.4436 87.4815 23.6061C87.5492 23.7686 87.6484 23.916 87.7733 24.04C87.8973 24.165 88.0448 24.2642 88.2072 24.3318C88.3697 24.3995 88.544 24.4344 88.72 24.4344C88.896 24.4344 89.0703 24.3995 89.2328 24.3318C89.3952 24.2642 89.5427 24.165 89.6667 24.04L94.8267 18.8667C95.5757 18.1167 95.9965 17.1 95.9965 16.04C95.9965 14.98 95.5757 13.9633 94.8267 13.2133Z" fill="white"/>
</g>
<g clip-path="url(#clip1_1_425)">
<path d="M1.17333 13.2133L6.33333 7.99999C6.45728 7.87502 6.60475 7.77582 6.76723 7.70813C6.92971 7.64044 7.10398 7.60559 7.28 7.60559C7.45601 7.60559 7.63029 7.64044 7.79277 7.70813C7.95525 7.77582 8.10271 7.87502 8.22667 7.99999C8.475 8.24981 8.61439 8.58774 8.61439 8.93999C8.61439 9.29224 8.475 9.63017 8.22667 9.87999L3.48 14.6667H30.6667C31.0203 14.6667 31.3594 14.8071 31.6095 15.0572C31.8595 15.3072 32 15.6464 32 16V16C32 16.3536 31.8595 16.6927 31.6095 16.9428C31.3594 17.1928 31.0203 17.3333 30.6667 17.3333H3.4L8.22667 22.1467C8.35164 22.2706 8.45083 22.4181 8.51852 22.5806C8.58621 22.743 8.62106 22.9173 8.62106 23.0933C8.62106 23.2693 8.58621 23.4436 8.51852 23.6061C8.45083 23.7686 8.35164 23.916 8.22667 24.04C8.10271 24.165 7.95525 24.2642 7.79277 24.3318C7.63029 24.3995 7.45601 24.4344 7.28 24.4344C7.10398 24.4344 6.92971 24.3995 6.76723 24.3318C6.60475 24.2642 6.45728 24.165 6.33333 24.04L1.17333 18.8667C0.424263 18.1167 0.00351906 17.1 0.00351906 16.04C0.00351906 14.98 0.424263 13.9633 1.17333 13.2133Z" fill="white"/>
</g>
<defs>
<clipPath id="clip0_1_425">
<rect width="32" height="32" fill="white" transform="translate(64)"/>
</clipPath>
<clipPath id="clip1_1_425">
<rect width="32" height="32" fill="white" transform="matrix(-1 0 0 1 32 0)"/>
</clipPath>
</defs>
</svg>
